<mxfile host="app.diagrams.net" agent="Mozilla/5.0 (X11; Linux x86_64; rv:132.0) Gecko/20100101 Firefox/132.0" version="24.9.0">
  <diagram name="Page-1" id="XOtDf47mJ4QDmoR3YQ8d">
    <mxGraphModel dx="1434" dy="737" grid="1" gridSize="10" guides="1" tooltips="1" connect="1" arrows="1" fold="1" page="1" pageScale="1" pageWidth="850" pageHeight="1100" math="0" shadow="0">
      <root>
        <mxCell id="0" />
        <mxCell id="1" parent="0" />
        <mxCell id="2bVP7zkzep9sS2BcGDq--1" value="Display" style="rounded=1;whiteSpace=wrap;html=1;fillColor=#d5e8d4;strokeColor=#82b366;" vertex="1" parent="1">
          <mxGeometry x="305" y="270" width="240" height="80" as="geometry" />
        </mxCell>
        <mxCell id="2bVP7zkzep9sS2BcGDq--2" value="Infrared HAT" style="rounded=1;whiteSpace=wrap;html=1;fillColor=#dae8fc;strokeColor=#6c8ebf;" vertex="1" parent="1">
          <mxGeometry x="305" y="390" width="240" height="80" as="geometry" />
        </mxCell>
        <mxCell id="2bVP7zkzep9sS2BcGDq--3" value="Raspberry Pi Zero 2 W" style="rounded=1;whiteSpace=wrap;html=1;fillColor=#e1d5e7;strokeColor=#9673a6;" vertex="1" parent="1">
          <mxGeometry x="305" y="510" width="240" height="80" as="geometry" />
        </mxCell>
        <mxCell id="2bVP7zkzep9sS2BcGDq--4" value="Near Field Communication / Radio Frequency Identification Card" style="rounded=1;whiteSpace=wrap;html=1;fillColor=#ffe6cc;strokeColor=#d79b00;" vertex="1" parent="1">
          <mxGeometry x="305" y="630" width="240" height="80" as="geometry" />
        </mxCell>
        <mxCell id="2bVP7zkzep9sS2BcGDq--5" value="Battery Pack" style="rounded=1;whiteSpace=wrap;html=1;fillColor=#f8cecc;strokeColor=#b85450;" vertex="1" parent="1">
          <mxGeometry x="305" y="750" width="240" height="80" as="geometry" />
        </mxCell>
        <mxCell id="2bVP7zkzep9sS2BcGDq--6" value="" style="endArrow=classic;startArrow=classic;html=1;rounded=0;entryX=0.5;entryY=1;entryDx=0;entryDy=0;exitX=0.5;exitY=0;exitDx=0;exitDy=0;" edge="1" parent="1" source="2bVP7zkzep9sS2BcGDq--3" target="2bVP7zkzep9sS2BcGDq--2">
          <mxGeometry width="50" height="50" relative="1" as="geometry">
            <mxPoint x="375" y="600" as="sourcePoint" />
            <mxPoint x="425" y="550" as="targetPoint" />
          </mxGeometry>
        </mxCell>
        <mxCell id="2bVP7zkzep9sS2BcGDq--7" value="" style="endArrow=classic;startArrow=classic;html=1;rounded=0;entryX=0.5;entryY=1;entryDx=0;entryDy=0;exitX=0.5;exitY=0;exitDx=0;exitDy=0;" edge="1" parent="1" source="2bVP7zkzep9sS2BcGDq--2" target="2bVP7zkzep9sS2BcGDq--1">
          <mxGeometry width="50" height="50" relative="1" as="geometry">
            <mxPoint x="375" y="600" as="sourcePoint" />
            <mxPoint x="425" y="550" as="targetPoint" />
          </mxGeometry>
        </mxCell>
        <mxCell id="2bVP7zkzep9sS2BcGDq--8" value="" style="endArrow=classic;startArrow=classic;html=1;rounded=0;exitX=0.5;exitY=0;exitDx=0;exitDy=0;" edge="1" parent="1" source="2bVP7zkzep9sS2BcGDq--4">
          <mxGeometry width="50" height="50" relative="1" as="geometry">
            <mxPoint x="375" y="600" as="sourcePoint" />
            <mxPoint x="425" y="590" as="targetPoint" />
          </mxGeometry>
        </mxCell>
        <mxCell id="2bVP7zkzep9sS2BcGDq--9" value="" style="endArrow=classic;startArrow=classic;html=1;rounded=0;entryX=0.5;entryY=0;entryDx=0;entryDy=0;exitX=0.5;exitY=1;exitDx=0;exitDy=0;" edge="1" parent="1" source="2bVP7zkzep9sS2BcGDq--4" target="2bVP7zkzep9sS2BcGDq--5">
          <mxGeometry width="50" height="50" relative="1" as="geometry">
            <mxPoint x="375" y="600" as="sourcePoint" />
            <mxPoint x="425" y="550" as="targetPoint" />
          </mxGeometry>
        </mxCell>
      </root>
    </mxGraphModel>
  </diagram>
</mxfile>
